<?xml version="1.0" encoding="utf-8"?>
<!-- Generator: Adobe Illustrator 21.0.0, SVG Export Plug-In . SVG Version: 6.00 Build 0)  -->
<svg version="1.1"
	 id="svg4558" inkscape:version="0.92.1 r15371" sodipodi:docname="Faiz-NM.svg" xmlns:cc="http://creativecommons.org/ns#" xmlns:dc="http://purl.org/dc/elements/1.1/" xmlns:inkscape="http://www.inkscape.org/namespaces/inkscape" xmlns:rdf="http://www.w3.org/1999/02/22-rdf-syntax-ns#" xmlns:sodipodi="http://sodipodi.sourceforge.net/DTD/sodipodi-0.dtd" xmlns:svg="http://www.w3.org/2000/svg"
	 xmlns="http://www.w3.org/2000/svg" xmlns:xlink="http://www.w3.org/1999/xlink" x="0px" y="0px" viewBox="0 0 595.3 841.9"
	 style="enable-background:new 0 0 595.3 841.9;" xml:space="preserve">
<style type="text/css">
	.st0{fill:#2A2939;}
	.st1{fill:#FF1B02;}
	.st2{fill:#B21200;}
	.st3{fill:#B21200;stroke:#2A2939;stroke-width:0.2658;stroke-linecap:square;}
</style>
<sodipodi:namedview  bordercolor="#666666" borderopacity="1.0" id="base" inkscape:current-layer="layer1" inkscape:cx="1474.7941" inkscape:cy="13.714738" inkscape:document-units="mm" inkscape:guide-bbox="true" inkscape:pageopacity="0.0" inkscape:pageshadow="2" inkscape:window-height="705" inkscape:window-maximized="1" inkscape:window-width="1366" inkscape:window-x="-8" inkscape:window-y="-8" inkscape:zoom="0.5" pagecolor="#ffffff" showgrid="false" showguides="true">
	
		<sodipodi:guide  id="guide4550" inkscape:color="rgb(0,0,255)" inkscape:label="" inkscape:locked="false" orientation="-0.70710678,-0.70710678" position="189.85508,77.589063">
		</sodipodi:guide>
	<sodipodi:guide  id="guide4552" inkscape:locked="false" orientation="0,1" position="187.2056,37.932228"></sodipodi:guide>
	<sodipodi:guide  id="guide4554" inkscape:locked="false" orientation="0,1" position="187.18221,78.951419"></sodipodi:guide>
</sodipodi:namedview>
<g id="layer1" inkscape:groupmode="layer" inkscape:label="Layer 1">
	
		<rect id="rect4544" x="99.9" y="34.2" inkscape:export-filename="D:\Faiz\Juli\28\eddydpyl\Faiz-NM-v1.png" inkscape:export-xdpi="300" inkscape:export-ydpi="300" class="st0" width="396.6" height="396.6">
	</rect>
	<g id="g4566" transform="translate(-7.0852568,0.03640723)" inkscape:export-xdpi="300" inkscape:export-ydpi="300">
		<path id="rect5508" class="st1" d="M263.7,282.1v-18.3c0-4.7-3.7-8.5-8.2-8.5l0,0c-4.5,0-8.2,3.8-8.2,8.5v18.3
			c0,4.7,3.7,8.5,8.2,8.5l0,0C260,290.6,263.7,286.8,263.7,282.1z"/>
		<circle id="path5510" class="st2" cx="255.5" cy="242.9" r="8.1"/>
		<path id="rect5512" class="st1" d="M263.7,221.9v-18.5c0-4.7-3.7-8.5-8.2-8.5l0,0c-4.5,0-8.2,3.8-8.2,8.5v18.5
			c0,4.7,3.7,8.5,8.2,8.5l0,0C260,230.4,263.7,226.6,263.7,221.9z"/>
		<path id="rect5518" class="st1" d="M270.1,208.8l22.2,22.2c3.3,3.3,8.6,3.4,11.8,0.2l0,0c3.2-3.2,3.1-8.5-0.2-11.8l-22.2-22.2
			c-3.3-3.3-8.6-3.4-11.8-0.2l0,0C266.7,200.2,266.8,205.5,270.1,208.8z"/>
		<circle id="circle5514" class="st2" cx="255.5" cy="182.5" r="8.1"/>
		<path id="rect4526" class="st1" d="M363.4,261.3v-18.5c0-4.7-3.7-8.5-8.2-8.5l0,0c-4.5,0-8.2,3.8-8.2,8.5v18.5
			c0,4.7,3.7,8.5,8.2,8.5l0,0C359.7,269.9,363.4,266,363.4,261.3z"/>
		<path id="rect4536" class="st1" d="M307.4,246l22.2,22.2c3.3,3.3,8.6,3.4,11.8,0.2l0,0c3.2-3.2,3.1-8.5-0.2-11.8L319,234.4
			c-3.3-3.3-8.6-3.4-11.8-0.2l0,0C303.9,237.4,304,242.7,307.4,246z"/>
		<circle id="circle4528" class="st2" cx="355.2" cy="282.1" r="8.1"/>
		<path id="rect4530" class="st1" d="M363.4,201.3v-18.5c0-4.7-3.7-8.5-8.2-8.5l0,0c-4.5,0-8.2,3.8-8.2,8.5v18.5
			c0,4.7,3.7,8.5,8.2,8.5l0,0C359.7,209.8,363.4,206,363.4,201.3z"/>
		<circle id="circle4532" class="st2" cx="355.2" cy="222.1" r="8.1"/>
	</g>
	
		<polygon id="rect4544-0" inkscape:export-filename="D:\Faiz\Juli\28\eddydpyl\Faiz-NM-v1.png" inkscape:export-xdpi="300" inkscape:export-ydpi="300" class="st0" points="
		497.8,449.2 101.1,449.2 100.5,817.6 497.2,817.6 	">
	</polygon>
	
		<g id="g4688" transform="matrix(1.504965,0,0,1.504965,189.83775,-130.86554)" inkscape:export-xdpi="300" inkscape:export-ydpi="300">
		<path id="rect5508-8" class="st1" d="M50.4,540.8v-24c0-3.1-2.4-5.7-5.4-5.7h-5.5c-3,0-5.4,2.5-5.4,5.7v24c0,3.1,2.4,5.7,5.4,5.7
			H45C48,546.5,50.4,543.9,50.4,540.8z"/>
		<circle id="path5510-8" class="st3" cx="42.2" cy="519.3" r="8.1"/>
		<path id="rect5512-9" class="st1" d="M50.4,499v-24.2c0-3.1-2.4-5.7-5.4-5.7h-5.5c-3,0-5.4,2.5-5.4,5.7V499c0,3.1,2.4,5.7,5.4,5.7
			H45C48,504.7,50.4,502.1,50.4,499z"/>
		<path id="rect5518-4" class="st1" d="M34.7,481.3L61,507.6c2.2,2.2,5.7,2.3,7.8,0.1l3.9-3.9c2.1-2.1,2.1-5.6-0.1-7.8l-26.3-26.3
			c-2.2-2.2-5.7-2.3-7.8-0.1l-3.9,3.9C32.5,475.6,32.5,479.1,34.7,481.3z"/>
		<circle id="circle5514-4" class="st3" cx="42.2" cy="477.3" r="8.1"/>
		<path id="rect4536-0" class="st1" d="M73.1,519.6l26.3,26.3c2.2,2.2,5.7,2.3,7.8,0.1l3.9-3.9c2.1-2.1,2.1-5.6-0.1-7.8L84.6,508
			c-2.2-2.2-5.7-2.3-7.8-0.1l-3.9,3.9C70.8,513.9,70.8,517.4,73.1,519.6z"/>
		<path id="rect4658" class="st1" d="M95.2,474.8v24c0,3.1,2.4,5.7,5.4,5.7h5.5c3,0,5.4-2.5,5.4-5.7v-24c0-3.1-2.4-5.7-5.4-5.7h-5.5
			C97.6,469.2,95.2,471.7,95.2,474.8z"/>
		<circle id="circle4660" class="st3" cx="103.4" cy="496.3" r="8.1"/>
		<path id="rect4662" class="st1" d="M95.2,516.6v24.2c0,3.1,2.4,5.7,5.4,5.7h5.5c3,0,5.4-2.5,5.4-5.7v-24.2c0-3.1-2.4-5.7-5.4-5.7
			h-5.5C97.7,511,95.2,513.5,95.2,516.6z"/>
		<circle id="circle4664" class="st3" cx="103.4" cy="538.3" r="8.1"/>
	</g>
</g>
</svg>
